<?xml version="1.0" encoding="UTF-8"?>
<svg width="128" height="128" version="1.1" viewBox="0 0 33.867 33.867" xmlns="http://www.w3.org/2000/svg"><rect x="-4.6158e-7" y="-1.6607e-7" width="33.867" height="33.867" fill="#8f33d6" stroke-width=".033073"/><path d="m17.243 23.535c2.9281 0 5.3018-2.7628 5.3018-6.171 0-3.4081-2.3737-6.1709-5.3018-6.1709-2.9281 0-5.3019 2.7628-5.3019 6.1709 0 3.4082 2.3737 6.171 5.3019 6.171z" fill="#1c1c1c" stroke-width=".033073"/><path d="m17.124 6.3205c1.0316 0 2.0511 0.14307 3.0295 0.42403h3.4e-5c1.7038 0.47317 3.2571 1.4391 4.4984 2.794l0.05887 0.064823 6.6e-5 6.62e-5c0.60388 0.67158 1.1172 1.4205 1.526 2.2275l0.0385 0.0767c0.39393 0.79352 0.67978 1.6294 0.85106 2.4861 0.27199 1.2827 0.17082 2.4942-0.29822 3.5068l-0.02259 0.04809c-0.25995 0.54398-0.62207 1.0127-1.0747 1.3929h-3.4e-5c-0.27226 0.22876-0.57477 0.42277-0.90392 0.58053 0.55298 0.47549 0.94569 1.1601 1.0868 1.9674h3.2e-5c0.09624 0.53601 0.06224 1.0597-0.1014 1.5543-0.14192 0.42929-0.38332 0.83903-0.71566 1.217l-3.2e-5 -3.4e-5c-0.58929 0.67201-1.3935 1.1658-2.0198 1.5169-0.80787 0.46709-1.708 0.82107-2.6754 1.052-0.90114 0.21521-1.8584 0.32392-2.8455 0.32392-0.28678 0-0.57864-0.0096-0.86866-0.02801v-3.2e-5c-2.7547-0.12519-5.3016-1.2413-7.171-3.146v-3.2e-5c-0.92475-0.94235-1.6492-2.0387-2.1538-3.2588l-0.024176-0.059035c-0.5043-1.2405-0.76402-2.5668-0.77288-3.9433l-0.00162-0.08801c-0.012999-0.91069 0.089064-1.8638 0.29656-2.7636 0.22361-0.97251 0.55807-1.8594 0.99473-2.6346 0.88434-1.6447 2.2434-3.0085 3.9292-3.9436v-3.25e-5c1.6133-0.89449 3.4596-1.3678 5.3397-1.3678zm1.6792 14.125c-0.20171 0-0.38742 3.3e-5 -0.56786 8.75e-4h-0.0023c-0.44142 0-0.89502 8.75e-4 -1.3514 0.0017h-6.6e-5c-0.61979 7.5e-4 -1.2551 0.0014-1.8742 0.0021 0.57735 0.27616 1.3792 0.43564 2.2652 0.43564 0.69662 0 1.3774-0.09866 1.9171-0.27563 0.14638-0.04892 0.29154-0.10425 0.43451-0.16348-0.26829-6.25e-4 -0.54329-0.0012-0.82107-0.0012zm-1.707-7.486c-1.1416 0-2.0825 0.42628-2.6181 1.1426h0.08444c0.51888 0 1.09 0 1.695 8.75e-4h-3.3e-5c0.3173 0 0.64022 3.75e-4 0.96186 8.75e-4 0.3217 3.75e-4 0.64214 8.75e-4 0.95452 8.75e-4 0.62309 0 1.133-7.5e-4 1.5596-2e-3 -0.61006-0.8211-1.6381-1.1366-2.4827-1.1416v3.3e-5h-0.02133l-0.0022-6.6e-5c-0.0426-0.0016-0.08559-0.0016-0.13113-0.0016z" fill="#1c1c1c" stroke="#1c1c1c" stroke-width=".23151"/><g stroke-width=".033073"><path d="m13.709 19.619c0.13993-0.05126 0.29031-0.0426 0.43633-0.04346 1.3142 0 2.7535-0.0026 4.0868-0.0043 1.5193-0.0052 2.8247 0.01564 4.3066-0.01045 0.43805-0.01389 0.89002-0.07474 1.3003-0.19814 2.0938-0.60494 2.9004-2.577 2.4301-4.7908-0.65183-3.268-3.122-6.0876-6.3526-6.9828-4.2762-1.2325-9.1617 0.4954-11.292 4.4648-0.8083 1.4324-1.222 3.3097-1.182 5.0515 0.029534 5.2671 4.0728 9.3129 9.2938 9.5459 2.0512 0.13123 4.1519-0.21818 5.9085-1.2351 1.2768-0.71619 2.7057-1.7148 2.4067-3.3749-0.23465-1.3454-1.3871-2.2372-2.7387-1.8704-0.43021 0.10689-0.82394 0.33116-1.2064 0.53452-0.51802 0.27464-1.0708 0.54584-1.6409 0.73703-1.4889 0.48935-3.8634 0.46934-5.2349-0.42413-0.27811-0.18776-0.75704-0.5667-0.83089-0.89522-0.04868-0.21557 0.10603-0.43286 0.30678-0.50413h0.0017zm-0.05388-4.6839c-0.17816-0.05996-0.31204-0.22685-0.31204-0.41807-0.0035-0.15382 0.05999-0.30854 0.12865-0.44586 0.67879-1.3576 2.1894-2.0347 3.7834-1.986 1.415 0.0078 2.8612 0.67449 3.5209 2.059 0.04346 0.09475 0.07822 0.19123 0.09125 0.28595 0.01392 0.09823 0.0035 0.1947-0.03909 0.279-0.1017 0.19731-0.31376 0.27467-0.51891 0.26772-1.6766 0.01041-4.583 0-6.3518 0.0026-0.10167-8.75e-4 -0.19989-0.0069-0.30073-0.04256h-0.0017z" fill="#fff"/><path d="m9.3627 15.443-2.1729 1.043 0.24944-2.4623z" fill="#1e1e1e"/><path d="m5.6409 7.0236c1.3712 0.062905 2.4868-0.34627 3.8268-0.9393 0.081922-0.03638 0.17178-0.028541 0.24395 0.012437 1.264 0.71242 2.3693 1.2222 3.7223 1.2843 0.14949 0.00685 0.26528 0.13388 0.25843 0.2834l-0.16745 3.6508c-0.13871 3.0246-2.3846 3.6762-4.2552 4.6154-0.088106 0.04438-0.18908 0.03605-0.26706-0.01349-1.7538-1.1025-3.9523-1.9418-3.8128-4.9842l0.16742-3.6505c0.0068788-0.14995 0.13381-0.26574 0.28367-0.25886z" clip-rule="evenodd" fill="#c36fff" fill-rule="evenodd"/><path d="m9.6236 6.4474-0.43458 8.8654 2.1729-0.69532 1.4341-1.5645 0.47804-2.8247v-2.3033z" fill="#ac39ff"/><path d="m9.4677 6.0844c0.081922-0.036414 0.17178-0.028609 0.24398 0.012375 1.264 0.71242 2.3693 1.2222 3.7223 1.2843 0.14946 0.00687 0.26524 0.13388 0.2584 0.2834l-0.16745 3.6508c-0.13871 3.0246-2.3846 3.6762-4.2552 4.6153-0.088106 0.04438-0.18914 0.03608-0.26713-0.01343-1.7538-1.1025-3.9523-1.9418-3.8128-4.9842l0.16742-3.6504c0.0068788-0.14995 0.13381-0.26574 0.28367-0.2589 1.3712 0.062905 2.4867-0.34621 3.8268-0.93924zm0.08675 0.72099c-1.1558 0.5037-2.2419 0.89628-3.5214 0.91887l-0.14863 3.2406c-0.06016 1.312 0.36999 2.0919 0.98564 2.6883 0.63394 0.61413 1.4192 1.0108 2.3011 1.5505 0.93246-0.45548 1.7549-0.78555 2.4379-1.3389 0.66602-0.53962 1.1615-1.2771 1.2213-2.5813l0.14863-3.2408c-1.2606-0.1395-2.3262-0.62835-3.4245-1.2372z" fill="#1c1c1c"/><path d="m6.4191 8.9176-0.06092 2.172c-0.011444 0.40786 0.30989 0.74774 0.71775 0.75919 0.40786 0.01144 0.74778-0.30989 0.75922-0.71775l0.06092-2.172c0.011444-0.40786-0.30989-0.74778-0.71775-0.75922-0.40786-0.011438-0.74778 0.30993-0.75922 0.71778z" fill="#cc84ff"/></g></svg>
